<svg xmlns="http://www.w3.org/2000/svg" width="512" height="512" viewBox="0 0 512 512">
  <path d="M256,2.545c-68.815,0-77.471.287-104.49,1.53-26.972,1.243-45.383,5.5-61.547,11.764a124.719,124.719,0,0,0-44.9,29.219,124.315,124.315,0,0,0-29.219,44.9C9.575,106.079,5.271,124.49,4.075,151.51,2.832,178.529,2.545,187.185,2.545,256s0.287,77.471,1.53,104.49c1.243,26.972,5.5,45.383,11.764,61.547a129.386,129.386,0,0,0,74.124,74.124c16.116,6.264,34.527,10.568,61.547,11.764,27.019,1.243,35.675,1.53,104.49,1.53s77.471-.287,104.49-1.53c26.972-1.243,45.383-5.5,61.547-11.764a129.386,129.386,0,0,0,74.124-74.124c6.264-16.116,10.568-34.527,11.764-61.546,1.243-27.02,1.53-35.675,1.53-104.491s-0.287-77.471-1.53-104.49c-1.243-26.972-5.5-45.383-11.764-61.547a124.726,124.726,0,0,0-29.219-44.9,124.319,124.319,0,0,0-44.905-29.219C405.921,9.575,387.462,5.318,360.49,4.075,333.471,2.832,324.815,2.545,256,2.545Zm0,45.67c67.668,0,75.7.239,102.434,1.483,24.724,1.148,38.162,5.26,47.057,8.751a78.651,78.651,0,0,1,29.171,18.985,78.845,78.845,0,0,1,18.985,29.171c3.491,8.895,7.6,22.333,8.752,47.056,1.243,26.733,1.482,34.719,1.482,102.435s-0.239,75.7-1.482,102.434c-1.148,24.724-5.261,38.162-8.752,47.056a84.091,84.091,0,0,1-48.156,48.157c-8.895,3.491-22.333,7.6-47.057,8.751-26.732,1.244-34.718,1.483-102.434,1.483s-75.7-.431-102.386-1.674c-24.724-1.148-38.162-5.26-47.057-8.751a78.09,78.09,0,0,1-29.123-18.986A78.468,78.468,0,0,1,58.448,405.4c-3.491-8.895-7.6-22.333-8.751-47.056-1.243-26.733-1.483-34.719-1.483-102.435S48.454,180.2,49.7,153.47c1.148-24.724,5.26-38.162,8.751-47.056A78.649,78.649,0,0,1,77.434,77.242a79.066,79.066,0,0,1,29.123-18.985c8.895-3.491,22.333-7.6,47.057-8.751C180.3,48.454,188.332,48.215,256,48.215ZM256,340.5A84.5,84.5,0,1,1,340.5,256,84.494,84.494,0,0,1,256,340.5Zm0-214.672A130.171,130.171,0,1,0,386.171,256,130.15,130.15,0,0,0,256,125.829Zm165.7-5.117A30.415,30.415,0,1,1,391.288,90.3,30.43,30.43,0,0,1,421.7,120.712h0Z"/>
</svg>
