<svg xmlns="http://www.w3.org/2000/svg" width="512" height="512" viewBox="0 0 512 512">
  <path d="M510.684,256c0,140.655-114.029,254.684-254.684,254.684S1.316,396.655,1.316,256,115.345,1.316,256,1.316,510.684,115.345,510.684,256ZM209.4,390.336c112.92,0,174.71-93.529,174.71-174.661,0-2.653-.048-5.306-0.193-7.959a125.424,125.424,0,0,0,30.63-31.787,123.573,123.573,0,0,1-35.261,9.695A61.65,61.65,0,0,0,406.3,151.666a122.592,122.592,0,0,1-38.974,14.905,61.434,61.434,0,0,0-104.623,55.953,174.363,174.363,0,0,1-126.571-64.153,61.548,61.548,0,0,0,19.005,82,60.719,60.719,0,0,1-27.784-7.67v0.772a61.472,61.472,0,0,0,49.249,60.2,61.7,61.7,0,0,1-16.207,2.171,60.236,60.236,0,0,1-11.528-1.11,61.421,61.421,0,0,0,57.352,42.641,123.12,123.12,0,0,1-76.261,26.288,133.69,133.69,0,0,1-14.664-.82A174.506,174.506,0,0,0,209.4,390.336Z"/>
</svg>
