<svg xmlns="http://www.w3.org/2000/svg" width="512" height="512" viewBox="0 0 512 512">
  <path d="M277.419,217.162L372.113,56.923l94.7,160.239h-189.4ZM209.267,455.077L146.6,431.151,83.922,455.077,87.3,388.063l-42.12-52.224,64.769-17.5,36.642-56.2,36.641,56.2,64.769,17.5-42.12,52.224ZM146.6,227.643a83.33,83.33,0,1,1,83.308-83.33A83.355,83.355,0,0,1,146.6,227.643Zm0-146.382a63.052,63.052,0,1,0,63.036,63.052A63.07,63.07,0,0,0,146.6,81.261Zm301.475,364.6h-151.9V293.922h151.9V445.866ZM427.509,314.488H316.726V425.3H427.509V314.488Z"/>
</svg>
