<svg xmlns="http://www.w3.org/2000/svg" width="512" height="512" viewBox="0 0 512 512">
  <path d="M96.093,54.395a181.559,181.559,0,0,0,65.26-37.683A65.326,65.326,0,0,1,218.317,1.453a181.424,181.424,0,0,0,75.359-.007A65.343,65.343,0,0,1,350.64,16.712a181.528,181.528,0,0,0,65.267,37.676,65.356,65.356,0,0,1,41.7,41.705,181.563,181.563,0,0,0,37.683,65.26,65.323,65.323,0,0,1,15.259,56.964,181.426,181.426,0,0,0,.007,75.359,65.34,65.34,0,0,1-15.266,56.964,181.533,181.533,0,0,0-37.676,65.267,65.354,65.354,0,0,1-41.705,41.7,181.563,181.563,0,0,0-65.26,37.683,65.323,65.323,0,0,1-56.964,15.259,181.426,181.426,0,0,0-75.359.007,65.34,65.34,0,0,1-56.964-15.266,181.533,181.533,0,0,0-65.267-37.676,65.356,65.356,0,0,1-41.7-41.705,181.559,181.559,0,0,0-37.683-65.26A65.326,65.326,0,0,1,1.453,293.683a181.424,181.424,0,0,0-.007-75.359A65.343,65.343,0,0,1,16.712,161.36,181.528,181.528,0,0,0,54.388,96.093,65.357,65.357,0,0,1,96.093,54.395Z"/>
</svg>
