<?xml version="1.0" encoding="utf-8"?>
<!-- Generator: Adobe Illustrator 24.3.0, SVG Export Plug-In . SVG Version: 6.00 Build 0)  -->
<svg version="1.1" xmlns="http://www.w3.org/2000/svg" xmlns:xlink="http://www.w3.org/1999/xlink" x="0px" y="0px"
	 viewBox="0 0 512 512" style="enable-background:new 0 0 512 512;" xml:space="preserve">
<path d="M495.43,415.49L335.82,255.95L495.43,96.4c22.03-22.04,22.04-57.79,0.03-79.85s-57.72-22.07-79.75-0.03
	L255.98,176.17L96.26,16.63C74.23-5.41,38.52-5.4,16.5,16.66s-22,57.81,0.03,79.85l159.62,159.54L16.53,415.6
	c-22.03,22.04-22.04,57.79-0.03,79.85c22.02,22.06,57.72,22.07,79.75,0.03l159.72-159.65l159.72,159.65
	c22.06,22.04,57.79,22.01,79.81-0.08C517.53,473.3,517.49,437.53,495.43,415.49z"/>
</svg>
