<svg class="card-stats__icon" width="456" height="512" viewBox="0 0 456 512">
   <path d="M252.534,290.936V167.9H393.8A62.208,62.208,0,0,1,456,230.108v60.828H252.534Zm38.2-169.435a36.465,36.465,0,1,0-38.2-36.423V121.5H205.8V85.078A36.458,36.458,0,1,0,167.6,121.5H94.539A83.172,83.172,0,0,1,229.168,27.312,83.183,83.183,0,0,1,363.8,121.5H290.738ZM205.8,290.936H2.329V230.108a62.208,62.208,0,0,1,62.2-62.213H205.8V290.936Zm0,219.2H87.041a61.909,61.909,0,0,1-61.9-61.915V337.68H205.8V510.134Zm227.4-61.915a61.908,61.908,0,0,1-61.9,61.915H252.534V337.68H433.2V448.219Z"/>
</svg>