<svg xmlns="http://www.w3.org/2000/svg" width="512" height="512" viewBox="0 0 512 512">
   <path d="M488.1,260.241l-171.4-148.969a91.808,91.808,0,0,0-120.439,0L24.867,260.241,0.105,231.789l171.4-148.971a129.558,129.558,0,0,1,169.957,0l171.4,148.971ZM300,135.531L429.019,246.653V382.007a29.77,29.77,0,0,1-29.778,29.759H342.169A29.771,29.771,0,0,1,312.4,382.008V316.446a29.77,29.77,0,0,0-29.778-29.758H230.359a29.77,29.77,0,0,0-29.778,29.758v65.562A29.771,29.771,0,0,1,170.8,411.766H113.73a29.77,29.77,0,0,1-29.778-29.759V246.653L212.975,135.531A66.683,66.683,0,0,1,300,135.531Z"/>
</svg>
