<svg width="350" height="512" viewBox="0 0 350 512">
  <path d="M175,511.918A174.558,174.558,0,0,1,.084,337.145c0-47.439,19.366-90.508,49.976-122.342V124.92C50.06,56.259,106.283.082,175,.082S299.94,56.259,299.94,124.92V214.8A174.762,174.762,0,0,1,175,511.918Zm-42.544-92.249c0,8.318,7.569,15.124,16.651,15.124h51.786c9.082,0,16.651-6.806,16.651-15.124l-17.568-90.747c12.109-8.319,20.435-21.931,20.435-37.811a45.411,45.411,0,0,0-90.822,0c0,15.88,8.326,30.249,20.435,37.811ZM237.47,124.92a62.47,62.47,0,0,0-124.94,0v48.687A173.293,173.293,0,0,1,175,162.371c21.865,0,43.1,4.37,62.47,11.236V124.92Z"/>
</svg>
