<svg xmlns="http://www.w3.org/2000/svg" width="512" height="512" viewBox="0 0 512 512">
  <path d="M387.032,377.667A181.5,181.5,0,0,0,408.8,349.578a98.309,98.309,0,0,0,.49-191.366,181.448,181.448,0,0,0-21.632-28.2A123.831,123.831,0,0,1,387.032,377.667ZM102.709,158.212a98.309,98.309,0,0,0,.49,191.366,181.5,181.5,0,0,0,21.769,28.089,123.831,123.831,0,0,1-.627-247.655A181.448,181.448,0,0,0,102.709,158.212ZM256.333,414.958A159.458,159.458,0,1,1,415.794,255.5,159.46,159.46,0,0,1,256.333,414.958Zm0-281.3A121.841,121.841,0,1,0,378.176,255.5,121.842,121.842,0,0,0,256.333,133.659ZM281.3,171.61A108.912,108.912,0,0,0,178.575,316.557,98.865,98.865,0,0,1,317.39,177.743,108.672,108.672,0,0,0,281.3,171.61Z"/>
</svg>
