<svg xmlns="http://www.w3.org/2000/svg" width="512" height="512" viewBox="0 0 512 512">
  <path d="M208.811,144.127c-20.354.128-22.5,1.171-32.565,3.177C75.928,167.189,14.872,293.968,71.976,382.622c55.426,86.278,205.91,94.789,269.116,6.285a156.6,156.6,0,0,0,28.73-88.933l47.885,0.36c-0.835,100.794-87.744,192.579-190.343,201.426C108.966,511.975-7.755,407.7.148,287.2,6.736,186.251,100.35,98.409,208.571,97.747,208.688,113.2,208.688,128.671,208.811,144.127ZM510.965,205.2H463.08V86.512L225.57,316.555l-33.88-32.8L429.2,53.722H306.733V7.342H510.965V205.2Z"/>
</svg>
