<svg width="512" height="88" viewBox="0 0 512 88">
   <path d="M508.76,87.889c-1.57-12.506-3.143-28.891-4.725-41-2.182-16.635-17.845-31.858-34.984-33.7A2123.288,2123.288,0,0,0,256.008,2.549h-0.016A2123.3,2123.3,0,0,0,42.949,13.192c-17.138,1.839-32.8,17.062-34.984,33.7C6.383,59,4.81,75.383,3.24,87.889H0.1c1.7-13.521,3.4-27.1,5.107-40.824C7.409,29.432,23.247,13.3,40.576,11.346A2048.873,2048.873,0,0,1,255.992.064h0.016A2048.873,2048.873,0,0,1,471.424,11.346C488.753,13.3,504.591,29.432,506.8,47.065c1.709,13.722,3.409,27.3,5.106,40.824H508.76Z"/>
</svg>