<svg xmlns="http://www.w3.org/2000/svg" width="512" height="512" viewBox="0 0 512 512">
  <path class="cls-1" d="M470.269,247.314c0.083,2.39.137,4.787,0.137,7.2a213.523,213.523,0,0,1-73.373,161.3l-32.582-37.84A163.726,163.726,0,0,0,420.46,254.512c0-1.734-.036-3.46-0.093-5.18ZM277.326,91.7l5.979-49.569a213.621,213.621,0,0,1,125.259,61.92L372.8,138.9A163.8,163.8,0,0,0,277.326,91.7ZM102.64,312.65l-46.565,18.1a213.821,213.821,0,0,1,18.8-190.091L117,167.507A163.794,163.794,0,0,0,102.64,312.65ZM256.218,418.67q7.128,0,14.1-.617l4.73,49.7q-9.3.824-18.83,0.834A213.318,213.318,0,0,1,153.74,442.54l24.194-43.681A163.57,163.57,0,0,0,256.218,418.67Zm66.565-110.519a85.075,85.075,0,0,0,18.953-53.639c0-.306-0.02-0.607-0.024-0.913l48.821-1.354c0.013,0.755.031,1.509,0.031,2.267a133.68,133.68,0,0,1-30.284,84.925ZM256.218,169.037A85.3,85.3,0,0,0,185.5,206.564L144.617,179.85a134.311,134.311,0,0,1,195.974-29.826L309.5,187.681A85.161,85.161,0,0,0,256.218,169.037ZM201.925,320.45l-30.38,38.207a134.033,134.033,0,0,1-47.6-80.576l48.174-8.046A85.247,85.247,0,0,0,201.925,320.45Zm54.293-118.957a53.019,53.019,0,1,1-53.046,53.019A53.033,53.033,0,0,1,256.218,201.493Z"/>
</svg>
