<svg xmlns="http://www.w3.org/2000/svg" width="1480" height="479" viewBox="0 0 1480 479">
  <defs>
    <style>
      .cls-1 {
        fill: #c0d0de;
      }

      .cls-1, .cls-2, .cls-3 {
        fill-rule: evenodd;
      }

      .cls-2 {
        fill: #7c9cba;
      }

      .cls-3 {
        fill: #fff;
      }
    </style>
  </defs>
  <path class="cls-1" d="M0.6,161.392c-0.424,0,116.249,66.889,116.249,66.889S51.419,342.25,51.419,341.826c84.922-23.343,210.279-47.184,294.2-58.985,0-.424-30.641-189.362-31.065-188.938C250.139,102.172,91.7,137.679.6,161.392Zm1479.02,74c0.42,0-129.25,79.889-129.25,79.889s80.43,131.969,80.43,131.545c-84.92-23.343-231.28-44.184-315.21-55.985,0-.424,22.65-216.362,23.07-215.938C1203.08,183.172,1388.52,211.679,1479.62,235.392Z"/>
  <path id="Ellipse_1_copy" data-name="Ellipse 1 copy" class="cls-2" d="M130.106,65.208c0.022,0.019,38.9,183.031,38.506,183.031,0.4-.3,177.165,34.36,177.149,34.762,0.388-.389-27.425-186.913-27.477-186.914C318.162,96.347,129.7,64.76,130.106,65.208Zm1008.024,109.8c-0.03-.008,166.11,90.172,166.12,90.184-0.01-.018-38.02,212.926-38.02,212.92s-150.66-89.315-150.66-89.317S1138.13,175.02,1138.13,175.006ZM481.987,231.9c0.021,0.019,21.318,214.1,20.93,214.1,0.4-.3,239.021-259.1,239.021-259.108,0,0.017-2.935-186.776-2.987-186.776C738.829,0.373,481.582,231.452,481.987,231.9Z"/>
  <path class="cls-3" d="M129.727,65.1c0.022,0.019,39.054,183.583,38.665,183.583,143.052-36.142,435.014-63.694,574.178-61.75,0.389-.389-3.234-186.842-3.286-186.843C583.4-.038,266.575,29.187,129.727,65.1ZM481.288,231.479c275.953-31.529,632.012-8.493,823.332,33.545,0-.525-38.42,212.772-37.89,213.3-268.6-50.972-508.18-52.548-764.159-31.528C502.571,446.267,480.762,231.479,481.288,231.479Z"/>
</svg>
