<svg xmlns="http://www.w3.org/2000/svg" width="506" height="511" viewBox="0 0 506 511">
  <path d="M496.366,311.493l-47.707-36.748a182.643,182.643,0,0,0,1.127-19.293,177.209,177.209,0,0,0-1.127-19.294l47.707-36.748A22.8,22.8,0,0,0,502,170.064L452.519,85.531a23.093,23.093,0,0,0-28.668-10.139L367.47,97.638a193.334,193.334,0,0,0-33.741-19.294L325.4,19.565A22.843,22.843,0,0,0,302.5-.028H203.185a22.76,22.76,0,0,0-22.856,19.422l-8.674,58.993a199.243,199.243,0,0,0-33.7,19.294L81.576,75.35A23.572,23.572,0,0,0,53.342,85.531L3.77,170.021A22.679,22.679,0,0,0,9.365,199.5l47.707,36.748a166.2,166.2,0,0,0,0,38.5L9.365,311.493A22.846,22.846,0,0,0,3.77,340.839l49.442,84.576A23.046,23.046,0,0,0,81.88,435.553l56.38-22.245A195.078,195.078,0,0,0,172,432.6l8.674,58.78a22.8,22.8,0,0,0,22.9,19.635h99.317a22.8,22.8,0,0,0,22.855-19.422l8.674-58.993a200.137,200.137,0,0,0,33.7-19.336L424.5,435.6a23.488,23.488,0,0,0,8.674,1.583,22.863,22.863,0,0,0,19.95-11.551l49.745-84.96A22.77,22.77,0,0,0,496.366,311.493ZM252.844,340.668c-47.69,0-86.35-38.133-86.35-85.174s38.66-85.174,86.35-85.174,86.349,38.134,86.349,85.174C339.145,302.515,300.513,340.621,252.844,340.668Z"/>
</svg>