<svg width="512" height="421" viewBox="0 0 512 421">
   <path d="M390.83,285.44l26.409,126.7-12,2.4-27.6-133.306L504.807,166.068,512,174.717ZM386.2,412.766l-11.705,2.347-29.282-143.14,118.1-107.765,7.816,8.7L357.887,276.176ZM358.132,421L221.2,343.05,84.275,421l32.344-154.168L0,160.794,156.5,143.47,221.2,0l5.261,11.9,59.442,131.57,156.5,17.324L325.788,266.832Zm57.193-251.321L277.632,154.466,221.2,28.618,164.774,154.466,27.082,169.679l102.336,92.939L101.571,397.8,221.2,329.418,340.836,397.8,312.989,262.618ZM317.944,366L221.5,310.8,125.046,366l22.128-109.1L64.909,181.881l110.633-12.268L221.5,68.072l45.953,101.541L378.08,181.881,295.815,256.9ZM273.146,8.7l10.8-4.8,58.792,129.945-10.8,4.8Zm26.115,126.821L242.642,8.8l10.733-4.79,56.619,126.724Z"/>
</svg>