<svg xmlns="http://www.w3.org/2000/svg" width="512" height="512" viewBox="0 0 512 512">
  <path d="M374.644,315.672L410.02,490.027,255.843,401.811,101.65,490.027l35.375-174.355L5.515,195.783l176.859-19.606L255.843,13.9l73.462,162.274,176.85,19.606Zm-61.359-118.38L256.009,70.63,198.728,197.292,60.835,212.6,163.37,306.173l-27.58,136.09,120.219-68.856,120.208,68.856-27.582-136.09L451.17,212.6Zm14.973,101.994,21.661,106.49-94.4-53.879L161.1,405.776l21.66-106.49-80.526-73.224,108.295-11.975,44.986-99.111L300.5,214.087l108.288,11.975Z"/>
</svg>
