<svg xmlns="http://www.w3.org/2000/svg" width="196" height="512" viewBox="0 0 196 512">
  <defs>
    <style>
      .cls-1 {
        fill-rule: evenodd;
      }
    </style>
  </defs>
  <path class="cls-1" d="M116.859,141.275q-0.079-8.166-.29-16.345C115.8,96.195,107.814,67.2,90.558,44.437a155.572,155.572,0,0,0-27.6-27.685c-2.893-2.295-5.186-5.627-3.591-10.071A7.357,7.357,0,0,1,66,1.9c39.742-.452,79.488,0,119.232,0,4.129,0.037,7.245,3.748,7.212,8.3-0.106,4.846-5.871,7.922-10.338,11.792-20.229,17.529-35.8,40.637-42.46,66.516a169.659,169.659,0,0,0-4.9,42.053v82.8c2.332,0.012,4.664.037,7,.061a12.31,12.31,0,0,1,11.791,11.792c0,0.6.006,1.184,0.009,1.782h10.573a73.591,73.591,0,0,1,.329-7.8,6.63,6.63,0,0,1,6.234-5.774c4.611-.061,9.8,1.038,10,6.262q0.123,9.761,0,19.507a6.629,6.629,0,0,1-6.257,6.262c-2.491.037-5.089,0.257-7.051-1.013a6.585,6.585,0,0,1-2.957-5.249c-0.031-2.429-.125-4.871-0.2-7.312H153.534c0,0.6,0,1.2-.009,1.782a12.279,12.279,0,0,1-11.791,11.8c-2.332,0-4.664.013-7,.025v10.926c2.332,0,4.664.013,7,.025a12.291,12.291,0,0,1,11.791,11.792c0,0.6.006,1.2,0.009,1.782h10.574a74.262,74.262,0,0,1,.328-7.8,6.652,6.652,0,0,1,6.227-5.774c4.606-.061,9.81,1.074,10.007,6.262q0.124,9.759,0,19.519a6.63,6.63,0,0,1-6.257,6.262c-4.609.061-9.81-1.038-10.008-6.262-0.031-2.441-.125-4.883-0.2-7.324H153.534q0,0.9-.009,1.794a12.312,12.312,0,0,1-11.791,11.792c-2.332.012-4.664,0.025-7,.025V299.43c2.332,0.012,4.664.012,7,.024a12.3,12.3,0,0,1,11.791,11.792q0.006,0.9.009,1.8h10.574a74.361,74.361,0,0,1,.328-7.813,6.607,6.607,0,0,1,6.227-5.774c2.541-.024,5.2-0.232,7.175,1.1a6.594,6.594,0,0,1,2.832,5.163q0.124,9.76,0,19.519a6.654,6.654,0,0,1-6.265,6.262c-4.647.061-9.806-1.2-10-6.262-0.031-2.441-.125-4.87-0.2-7.312H153.534c0,0.6,0,1.184-.009,1.783A12.311,12.311,0,0,1,141.734,331.5q-3.5.019-7,.025-0.006,13.677-.057,27.331h0.057c0,0.135,0,.281,0,0.415q-0.012,1.136-.066,2.271c-0.152,42.492-.471,84.973.068,127.453,0.1,2.71,4,2.478,6.657,3.576a9.811,9.811,0,0,1,5.965,9.034,9.534,9.534,0,0,1-8.989,9.106q-12.678.257-25.362,0a9.5,9.5,0,0,1-8.955-8.423,9.9,9.9,0,0,1,9.385-10.449,3.161,3.161,0,0,0,3.2-2.93V402.994c-12.423,13.269-30.147,21.777-49.649,21.032-24.1-.915-47-16.369-56.94-38.342a65.886,65.886,0,0,1-5.766-26.416q-0.275-86.81,0-173.621C4.523,161.184,19.346,137.662,41.6,127.1c24.5-11.634,55.953-5.848,75.259,14.172h0Zm13,217.566V331.534h-8.327c0.012,8.984.079,17.981-.006,26.965-0.351,22.083-16.065,43.03-37.468,49.28A52.032,52.032,0,0,1,17.5,358.17q-0.269-85.712,0-171.424c0.211-22.083,15.732-42.993,36.857-49.438a53.063,53.063,0,0,1,51.036,12.133,51.917,51.917,0,0,1,11.487,16.3q0.045-8.5.025-17c-17.642-22.155-50.69-29.174-75.5-16.076C22.181,142.813,9.378,164.1,9.171,185.672q-0.273,86.791,0,173.56c0.309,32.226,29.288,61.389,63.061,59.9,29.433-1.294,56.192-26.709,57.564-57.568,0.04-.9.057-1.819,0.06-2.722h0Zm-13.212-27.319c-2.106,0-4.212-.012-6.319-0.025a12.292,12.292,0,0,1-11.791-11.792c-0.026-4.15-.6-8.52.629-12.133a12.3,12.3,0,0,1,11.163-8.118c2.107,0,4.213-.012,6.319-0.024V288.5c-2.106-.012-4.212-0.012-6.319-0.024a12.293,12.293,0,0,1-11.791-11.792c-0.026-4.211-.609-8.63.676-12.28a12.237,12.237,0,0,1,11.115-7.971c2.107-.012,4.213-0.012,6.319-0.025V245.486c-2.106-.012-4.212-0.025-6.319-0.025a12.329,12.329,0,0,1-11.791-11.8c-0.037-5.871-.582-12.182,3.01-16.223a12.119,12.119,0,0,1,8.781-4.016c2.107-.024,4.213-0.036,6.32-0.049,0-2.319,0-4.626.006-6.933h-0.007c0-2.222,0-4.456.012-6.69q0-6.482-.012-12.963c-0.189-19.934-14.264-38.965-33.4-44.8a47.156,47.156,0,0,0-60.861,44.8q-0.269,85.674,0,171.35c0.2,20.544,15.262,40.051,35.073,45.276a47.158,47.158,0,0,0,59.188-45.581V331.522h0Zm13.21-118.177c-0.038-29.517-.714-58.96.077-88.55,0.816-30.468,9.622-61.1,28.22-84.887a161.963,161.963,0,0,1,27.242-26.977c1.349-1.074,2.839-2.344,2.027-4.6a2.409,2.409,0,0,0-2.092-1.55c-39.719-1.331-79.485-.452-119.223,0-2.406.073-2.971,3.906-.951,5.493q0.628,0.494,1.251.989c17.8,14.246,33.1,31.775,42.433,52.295,9.217,20.264,12.657,42.981,12.688,65v82.788q4.164-.018,8.328,0h0Zm18.789,55.042a7.309,7.309,0,0,0-6.881-7.068q-15.729-.31-31.465,0a7.316,7.316,0,0,0-6.881,6.971c-0.024,3.8-.675,7.873.49,10.827a7.218,7.218,0,0,0,6.391,4.48q15.729,0.312,31.465,0a7.321,7.321,0,0,0,6.881-6.97C148.66,273.88,148.643,271.134,148.643,268.387Zm0-43.018a7.294,7.294,0,0,0-6.972-7.068c-10.457-.11-20.917-0.159-31.374,0a7.326,7.326,0,0,0-6.881,6.97c-0.029,4.627-.923,9.583,1.559,12.659a7.19,7.19,0,0,0,5.412,2.649c10.458,0.048,20.92.207,31.375-.013a7.3,7.3,0,0,0,6.881-6.97C148.66,230.862,148.643,228.115,148.643,225.369Zm0,86.048a7.311,7.311,0,0,0-6.881-7.08q-15.729-.312-31.465,0a7.321,7.321,0,0,0-6.881,6.97c-0.043,6.8-.288,15.088,6.881,15.308q15.729,0.31,31.465,0a7.317,7.317,0,0,0,6.881-6.971c0.017-2.746,0-5.493,0-8.227h0Zm-27.268,85.949h0.151v91.565a8.2,8.2,0,0,1-8.081,7.788c-3.962.22-6.41,6.775-1.968,8.728a4.337,4.337,0,0,0,1.706.378c8.376,0.061,16.754.22,25.126,0,2.942-.134,5.007-3.808,3.661-6.482a5.047,5.047,0,0,0-4.52-2.636s-7.518-1.722-7.594-7.776V382.62A68.3,68.3,0,0,1,121.375,397.366Zm8.481-97.949v-10.9h-8.33v10.9h8.33Zm0-43.017V245.486q-4.166.018-8.33,0V256.4h8.33Zm45.933,49.5c-0.026-2.063-4.4-1.953-5.6-1.416a1.559,1.559,0,0,0-.9,1.319q-0.368,9.668,0,19.348c0.125,1.977,4.454,1.819,5.553,1.343a1.579,1.579,0,0,0,.946-1.343c0.245-6.409,0-12.83,0-19.251h0Zm0-86.048c-0.026-2.063-4.434-1.916-5.555-1.44a1.61,1.61,0,0,0-.946,1.343q-0.372,9.686,0,19.36c0.125,1.965,4.414,1.855,5.595,1.318a1.57,1.57,0,0,0,.906-1.367c0.081-6.4,0-12.805,0-19.214h0Zm0,43.031c-0.026-2.063-4.461-1.88-5.518-1.453a1.587,1.587,0,0,0-.985,1.392c-0.081,6.433-.243,12.878,0,19.311,0.123,1.954,4.48,1.77,5.516,1.355a1.579,1.579,0,0,0,.985-1.391c0.081-6.409,0-12.818,0-19.214h0Z"/>
</svg>
