<svg width="100%" height="100%" viewBox="0 0 385 385" version="1.1" xmlns="http://www.w3.org/2000/svg" xmlns:xlink="http://www.w3.org/1999/xlink" xml:space="preserve" xmlns:serif="http://www.serif.com/" style="fill-rule:evenodd;clip-rule:evenodd;stroke-linejoin:round;stroke-miterlimit:2;"><rect id="gameplay-bonusstars" x="0.719" y="0.074" width="384" height="384" style="fill:none;"/><g><g><path d="M192.719,103.828l25.878,55.897l61.158,7.339l-45.165,41.885l11.92,60.432l-53.791,-30.011l-53.792,30.011l11.92,-60.432l-45.165,-41.885l61.158,-7.339l25.879,-55.897Z" style="fill:#fcff9c;"/><path d="M231.116,142.594l90.744,10.888l-67.014,62.147l17.686,89.668l-79.813,-44.529l-79.814,44.529l17.686,-89.668l-67.013,-62.147l90.744,-10.888l38.397,-82.938c12.799,27.646 25.598,55.292 38.397,82.938Zm-70.974,8.012l-76.987,9.237l56.854,52.726l-15.005,76.075l67.715,-37.779l67.714,37.779l-15.005,-76.075l56.855,-52.726l-76.988,-9.237l-32.576,-70.366c-10.859,23.455 -21.718,46.911 -32.577,70.366Z" style="fill:#fcff9c;"/></g></g></svg>