<svg width="100%" height="100%" viewBox="0 0 385 385" version="1.1" xmlns="http://www.w3.org/2000/svg" xmlns:xlink="http://www.w3.org/1999/xlink" xml:space="preserve" xmlns:serif="http://www.serif.com/" style="fill-rule:evenodd;clip-rule:evenodd;stroke-linejoin:round;stroke-miterlimit:2;"><rect id="gameplay-candy" x="0.6" y="0.074" width="384" height="384" style="fill:none;"/><g opacity="0.35"><path d="M192.225,192.925c23.399,-38.187 40.794,-71.383 23.818,-94.9c32.674,-5.521 43.74,8.895 48.566,29.068c1.805,25.95 -34.308,46.043 -72.384,65.832Z" style="fill:#fcff9c;"/><path d="M192.227,192.925c21.372,39.357 41.422,71.019 70.277,68.076c-11.556,31.057 -29.573,33.433 -49.456,27.526c-23.377,-11.412 -22.721,-52.733 -20.821,-95.602Z" style="fill:#fcff9c;"/><path d="M192.226,192.927c-44.77,-1.171 -82.215,0.363 -94.094,26.823c-21.119,-25.536 -14.167,-42.328 0.89,-56.594c21.571,-14.538 57.028,6.69 93.204,29.771Z" style="fill:#fcff9c;"/></g><path d="M192.971,80.652c28.171,0.134 55.933,11.281 76.271,30.557c16.83,15.952 28.569,37.268 32.883,60.143c5.587,29.631 -1.418,61.489 -19.229,86.057c-16.42,22.65 -41.638,38.849 -69.2,44.136c-28.029,5.376 -58.064,-0.474 -81.98,-16.119c-26.484,-17.326 -45.057,-46.272 -49.468,-77.753c-4.026,-28.738 3.606,-58.892 21.07,-82.238c20.086,-26.852 52.314,-43.991 86.776,-44.756c0.959,-0.021 1.916,-0.029 2.877,-0.027Zm1.199,114.324c-0.52,-0.959 -1.039,-1.919 -1.558,-2.88c-0.277,26.58 0.319,50.677 5.986,68.733l0.007,0.021l0.101,0.318l0.017,0.053l0.097,0.301l0.037,0.115l0.061,0.188l0.03,0.09l0.07,0.211l0.006,0.019c3.029,9.076 7.86,17.771 15.789,23.621l0.035,0.026l0.179,0.13l0.161,0.117l0.032,0.023l0.149,0.106l0.007,0.005c1.739,1.23 3.587,2.301 5.51,3.217c9.482,-2.735 18.569,-6.83 26.856,-12.216c4.754,-3.09 9.231,-6.589 13.387,-10.436c-9.406,0.311 -18.152,-4.155 -26.459,-11.786c-0.065,-0.06 -0.131,-0.121 -0.196,-0.181c-9.271,-8.579 -16.543,-19.205 -23.294,-30.046c0,0 -0.255,-0.41 -0.255,-0.41l-0.019,-0.031l-0.035,-0.057l-0.155,-0.249l-0.046,-0.075l-0.012,-0.02c-5.836,-9.434 -11.203,-19.151 -16.488,-28.907Zm-3.274,-0.089c0.57,-0.93 1.142,-1.859 1.715,-2.79c-24.537,13.828 -46.17,27.11 -58.735,42.056c-7.207,8.585 -12.272,19.419 -11.384,31.089c11.255,10.731 24.96,18.897 39.787,23.596c-5.012,-7.993 -5.535,-17.811 -3.085,-28.836c0.02,-0.089 0.04,-0.179 0.06,-0.267c2.787,-12.325 8.355,-23.944 14.371,-35.218l0.228,-0.426l0.017,-0.032l0.031,-0.06l0.139,-0.258l0.042,-0.077l0.011,-0.021c5.255,-9.779 10.991,-19.293 16.803,-28.756Zm100.6,-24.779c-4.432,8.274 -12.649,13.602 -23.378,16.978c-0.085,0.026 -0.169,0.053 -0.254,0.079c-12.067,3.749 -24.913,4.736 -37.684,5.163c-0.173,0.006 -0.346,0.011 -0.52,0.017l-0.067,0.002l-0.294,0.009l-0.087,0.003l-0.024,0c-11.096,0.339 -22.202,0.128 -33.303,-0.173c-1.09,-0.03 -2.181,-0.06 -3.274,-0.091c22.881,13.529 44.047,25.061 62.516,29.182l0.022,0.004l0.326,0.072l0.054,0.012l0.31,0.067l0.117,0.025l0.194,0.04l0.093,0.02l0.217,0.045l0.02,0.004c9.374,1.915 19.32,2.08 28.35,-1.862l0.04,-0.017l0.203,-0.09l0.184,-0.082l0.036,-0.017l0.17,-0.078l0.006,-0.002c1.964,-0.905 3.843,-1.989 5.621,-3.219c0.784,-3.163 1.412,-6.369 1.876,-9.606c1.736,-12.122 1.193,-24.534 -1.47,-36.485Zm-162.755,-7.482c-9.374,-1.915 -19.319,-2.08 -28.35,1.862l-0.04,0.017l-0.203,0.09l-0.184,0.082l-0.036,0.017l-0.172,0.078l-0.005,0.003c-1.971,0.907 -3.856,1.996 -5.639,3.231c-0.373,1.521 -0.71,3.052 -1.01,4.59c-2.663,13.646 -2.382,27.844 0.64,41.456c4.436,-8.256 12.647,-13.575 23.361,-16.946c0.085,-0.027 0.17,-0.053 0.255,-0.079c12.067,-3.749 24.912,-4.736 37.683,-5.163c0,0 0.484,-0.016 0.484,-0.016l0.036,-0.001l0.067,-0.002l0.294,-0.009l0.087,-0.003l0.024,-0c11.096,-0.339 22.203,-0.128 33.303,0.173c1.09,0.029 2.182,0.06 3.274,0.091c-22.88,-13.529 -44.046,-25.061 -62.516,-29.182l-0.022,-0.004l-0.326,-0.072l-0.054,-0.012l-0.309,-0.067l-0.118,-0.025l-0.194,-0.041l-0.093,-0.019l-0.217,-0.045l-0.02,-0.004Zm41.105,-64.607c-1.736,-1.228 -3.581,-2.297 -5.499,-3.211c-14.92,4.36 -28.836,12.091 -40.317,22.648c9.43,-0.333 18.195,4.136 26.521,11.784c0.066,0.06 0.131,0.121 0.196,0.181c9.127,8.445 16.315,18.873 22.977,29.538l0.317,0.508c0.091,0.146 0.183,0.294 0.274,0.441l0.035,0.057l0.155,0.249l0.046,0.075l0.013,0.02c5.836,9.434 11.202,19.151 16.488,28.907c0.519,0.958 1.038,1.919 1.557,2.88c0.277,-26.58 -0.319,-50.677 -5.986,-68.733l-0.007,-0.021l-0.101,-0.318l-0.016,-0.053l-0.097,-0.301l-0.038,-0.115l-0.061,-0.188l-0.03,-0.09l-0.07,-0.211l-0.006,-0.019c-3.029,-9.076 -7.859,-17.771 -15.788,-23.621l-0.036,-0.026l-0.178,-0.13l-0.162,-0.117l-0.032,-0.023l-0.148,-0.105l-0.007,-0.006Zm53.165,-2.556c4.948,7.973 5.455,17.752 3.016,28.727c-0.019,0.09 -0.039,0.179 -0.059,0.267c-2.787,12.325 -8.356,23.943 -14.371,35.218c-0.082,0.153 -0.164,0.305 -0.246,0.458l-0.031,0.06l-0.139,0.258l-0.041,0.077l-0.012,0.021c-5.255,9.779 -10.991,19.293 -16.802,28.756c-0.571,0.93 -1.143,1.859 -1.716,2.79c24.537,-13.828 46.17,-27.11 58.735,-42.056c7.205,-8.582 12.268,-19.411 11.385,-31.075c-11.211,-10.663 -24.868,-18.765 -39.719,-23.501Z" style="fill:#fcff9c;"/></svg>