<svg width="100%" height="100%" viewBox="0 0 385 385" version="1.1" xmlns="http://www.w3.org/2000/svg" xmlns:xlink="http://www.w3.org/1999/xlink" xml:space="preserve" xmlns:serif="http://www.serif.com/" style="fill-rule:evenodd;clip-rule:evenodd;stroke-linejoin:round;stroke-miterlimit:2;"><rect id="gameplay-difficulty" x="0.958" y="0.074" width="384" height="384" style="fill:none;"/><path d="M224.789,168.88c3.831,-4.073 9.961,-4.975 14.804,-2.179c4.842,2.795 7.125,8.555 5.513,13.909c-7.335,24.371 -16.053,53.333 -22.813,75.79c-2.685,8.921 -9.302,16.126 -17.963,19.559c-8.661,3.433 -18.416,2.719 -26.484,-1.94c-0.107,-0.061 -0.214,-0.123 -0.321,-0.184c-8.068,-4.659 -13.565,-12.75 -14.922,-21.967c-1.357,-9.218 1.574,-18.55 7.957,-25.336c16.069,-17.082 36.792,-39.114 54.229,-57.652Z" style="fill:#ffffa3;"/><path d="M205.741,174.407c-4.149,-0.728 -8.422,-1.109 -12.784,-1.109c-35.033,0 -64.339,24.521 -71.689,57.337c-2.125,9.432 -10.503,16.132 -20.172,16.132c-8.159,0 -17.835,0 -26.415,-0.001c-6.107,0 -11.902,-2.7 -15.831,-7.375c-3.929,-4.676 -5.589,-10.849 -4.537,-16.865c11.489,-66.168 69.191,-116.483 138.644,-116.483c69.454,-0 127.156,50.315 138.646,116.483c1.052,6.016 -0.609,12.19 -4.538,16.866c-3.929,4.676 -9.724,7.375 -15.831,7.375c-8.58,0 -18.256,0 -26.415,-0.003c-9.668,0 -18.044,-6.699 -20.17,-16.13c-2.55,-11.38 -7.74,-21.763 -14.893,-30.47l5.011,-16.646c2.961,-9.837 -1.234,-20.418 -10.13,-25.554c-8.897,-5.136 -20.158,-3.478 -27.196,4.004l-11.7,12.439Z" style="fill:url(#_Linear1);"/><defs><linearGradient id="_Linear1" x1="0" y1="0" x2="1" y2="0" gradientUnits="userSpaceOnUse" gradientTransform="matrix(180.766,0,0,180.766,89.7907,200.685)"><stop offset="0" style="stop-color:#ffffa3;stop-opacity:0.2"/><stop offset="1" style="stop-color:#ffffa3;stop-opacity:1"/></linearGradient></defs></svg>