<?xml version="1.0" encoding="utf-8"?>
<!-- Generator: Adobe Illustrator 26.0.1, SVG Export Plug-In . SVG Version: 6.00 Build 0)  -->
<svg version="1.1" id="Layer_1" xmlns="http://www.w3.org/2000/svg" xmlns:xlink="http://www.w3.org/1999/xlink" x="0px" y="0px"
	 viewBox="0 0 1078.9 1080" style="enable-background:new 0 0 1078.9 1080;" xml:space="preserve">
<style type="text/css">
	.st0{fill:none;}
	.st1{fill:#FCFF9C;}
	.st2{fill-rule:evenodd;clip-rule:evenodd;fill:url(#SVGID_1_);}
</style>
<rect id="gameplay-fling" x="1.7" y="0.2" class="st0" width="1077.2" height="1077.2"/>
<g>
	<path class="st1" d="M830.8,371.5c-20.1,6.6-31,28-24.3,47.7l1.9,7.9l-20.3-43.9c-8.2-21.6-32.7-32.5-54.7-24.5
		c-22,8.1-33.1,32.1-24.9,53.7l11.3,39.5L687.5,384c-9.1-21.2-34-31.2-55.7-22.3c-21.6,8.9-31.8,33.4-22.7,54.6l26.5,70.7
		L517.3,277.9c-11.4-20.1-37.3-27.4-57.8-16.2c-20.3,11.1-27.9,36.6-16.5,56.7l133.6,236.2c1.2,2.1,2.6,4,4,5.8
		c21.3,34.3,55.1,110.1,5.7,104.8l-117.2-40.7c-24.2-8.4-50.8,4.1-59.4,27.8c-8.6,23.8,4.1,49.9,28.4,58.3l119.5,41.5
		c3.2,1.6,6.5,3.3,10.1,4.9c95.1,42.5,157.8,68.7,198.1,63.6c36.7-4.6,149-50.2,174.8-97.3c23-42.3,5.5-164-18.4-240.2
		c-0.3-2.2-12.1-28.1-12.8-30.3l-29.9-57.4C872.7,375.5,851,364.8,830.8,371.5L830.8,371.5z M648.5,503.2c9.8,8.5,18,19.3,23.4,32.1
		c5.5,12.7,7.7,26.1,7.2,39.1C669.2,551.8,657.9,526.5,648.5,503.2L648.5,503.2z M734,469.8c9,9.4,16.1,20.9,20.4,34.1
		c4.3,13.2,5.3,26.7,3.5,39.6C750.2,520.1,741.2,493.8,734,469.8L734,469.8z M821,447.3c8.5,9.8,15,21.7,18.6,35.1
		c3.6,13.4,4,26.9,1.5,39.7C834.6,498.3,827,471.6,821,447.3z"/>
	
		<linearGradient id="SVGID_1_" gradientUnits="userSpaceOnUse" x1="-420.5638" y1="1079.8851" x2="-419.5638" y2="1079.8851" gradientTransform="matrix(-196.0548 380.3031 380.3031 196.0548 -492773.8125 -51404.082)">
		<stop  offset="0" style="stop-color:#FCFF9C;stop-opacity:0.5"/>
		<stop  offset="1" style="stop-color:#FCFF9C;stop-opacity:0"/>
	</linearGradient>
</g>
</svg>
