<svg width="100%" height="100%" viewBox="0 0 385 385" version="1.1" xmlns="http://www.w3.org/2000/svg" xmlns:xlink="http://www.w3.org/1999/xlink" xml:space="preserve" xmlns:serif="http://www.serif.com/" style="fill-rule:evenodd;clip-rule:evenodd;stroke-linejoin:round;stroke-miterlimit:2;"><rect id="gameplay-literaryexamples" x="0.915" y="0.074" width="384" height="384" style="fill:none;"/><g><path d="M125.862,100.866l-30.722,0l-21.274,51.796l0,33.564l51.996,-0l-0,-85.36Zm-19.832,16.246l-15.918,38.756l-0,14.112l19.504,0l0,-52.868l-3.586,-0Z" style="fill:#ffffa3;"/><path d="M187.31,100.866l-30.721,0l-21.274,51.796l0,33.564l51.995,-0l0,-85.36Zm-19.831,16.246l-15.918,38.756l-0,14.112l19.504,0l-0,-52.868l-3.586,-0Z" style="fill:#ffffa3;"/><path d="M259.968,283.282l30.722,-0l21.274,-51.796l-0,-33.564l-51.996,0l0,85.36Zm16.246,-69.114l-0,52.868l3.586,0l15.918,-38.756l0,-14.112l-19.504,-0Z" style="fill:#ffffa3;"/><path d="M198.52,283.282l30.722,-0l21.273,-51.796l0,-33.564l-51.995,0l-0,85.36Zm16.245,-69.114l0,52.868l3.587,0l15.918,-38.756l-0,-14.112l-19.505,-0Z" style="fill:#ffffa3;"/></g></svg>