<svg width="100%" height="100%" viewBox="0 0 385 385" version="1.1" xmlns="http://www.w3.org/2000/svg" xmlns:xlink="http://www.w3.org/1999/xlink" xml:space="preserve" xmlns:serif="http://www.serif.com/" style="fill-rule:evenodd;clip-rule:evenodd;stroke-linejoin:round;stroke-miterlimit:2;"><rect id="gameplay-obstacles" x="0.69" y="0.074" width="384" height="384" style="fill:none;"/><g><path d="M153.347,248.827c4.84,0.523 9.261,2.984 12.256,6.822c2.995,3.838 4.307,8.725 3.639,13.546c-3.012,20.809 -7.26,41.697 -12.573,62.013c-1.255,4.705 -4.363,8.7 -8.616,11.073c-4.252,2.373 -9.285,2.92 -13.947,1.516c-9.368,-2.805 -20.829,-6.255 -30.075,-9.039c-9.275,-2.793 -14.677,-12.425 -12.223,-21.795c4.357,-16.954 7.992,-34.741 10.589,-52.157c1.37,-9.597 10.1,-16.381 19.738,-15.339c9.16,0.975 20.64,2.216 31.212,3.36Z" style="fill:url(#_Linear1);"/><path d="M154.3,143.675c4.849,-0.437 9.669,1.109 13.36,4.285c3.69,3.177 5.936,7.713 6.225,12.573c1.137,20.998 1.118,42.238 -0.094,63.218c-0.304,4.853 -2.559,9.375 -6.252,12.537c-3.692,3.163 -8.508,4.695 -13.349,4.249c-9.709,-0.881 -21.597,-1.977 -31.208,-2.864c-9.68,-0.893 -16.902,-9.311 -16.313,-19.014c1.016,-17.725 1.048,-35.477 0.097,-53.2c-0.563,-9.692 6.669,-18.082 16.339,-18.954c9.605,-0.883 21.487,-1.954 31.195,-2.83Z" style="fill:#fcff9c;"/><path d="M193.939,227.177l25.652,-25.652l25.591,25.59l-25.652,25.652l-25.591,-25.59Z" style="fill:url(#_Linear2);"/><path d="M225.691,258.929l25.652,-25.652l15.523,15.523l-25.652,25.652l-15.523,-15.523Z" style="fill:url(#_Linear3);"/><path d="M247.376,280.614l25.652,-25.653l9.616,9.617l-25.652,25.652l-9.616,-9.616Z" style="fill:url(#_Linear4);"/><path d="M153.347,135.321c4.84,-0.523 9.261,-2.985 12.256,-6.822c2.995,-3.838 4.307,-8.725 3.639,-13.546c-3.012,-20.809 -7.26,-41.697 -12.573,-62.013c-1.255,-4.705 -4.363,-8.7 -8.616,-11.073c-4.252,-2.373 -9.285,-2.92 -13.947,-1.516c-9.368,2.805 -20.829,6.255 -30.075,9.039c-9.275,2.792 -14.677,12.425 -12.223,21.795c4.357,16.954 7.992,34.741 10.589,52.157c1.37,9.597 10.1,16.381 19.738,15.339c9.16,-0.975 20.64,-2.217 31.212,-3.36Z" style="fill:url(#_Linear5);"/><path d="M187.777,169.711l80.733,-80.733l25.653,0l-0,25.652l-106.386,106.385l0,-51.304Z" style="fill:#fcff9c;"/></g><defs><linearGradient id="_Linear1" x1="0" y1="0" x2="1" y2="0" gradientUnits="userSpaceOnUse" gradientTransform="matrix(-12.7123,74.1051,-74.1051,-12.7123,136.425,245.575)"><stop offset="0" style="stop-color:#fcff9c;stop-opacity:1"/><stop offset="1" style="stop-color:#fcff9c;stop-opacity:0"/></linearGradient><linearGradient id="_Linear2" x1="0" y1="0" x2="1" y2="0" gradientUnits="userSpaceOnUse" gradientTransform="matrix(74.1752,74.1752,-74.1752,74.1752,219.987,227.573)"><stop offset="0" style="stop-color:#fcff9c;stop-opacity:1"/><stop offset="1" style="stop-color:#fcff9c;stop-opacity:0"/></linearGradient><linearGradient id="_Linear3" x1="0" y1="0" x2="1" y2="0" gradientUnits="userSpaceOnUse" gradientTransform="matrix(74.1752,74.1752,-74.1752,74.1752,219.987,227.573)"><stop offset="0" style="stop-color:#fcff9c;stop-opacity:1"/><stop offset="1" style="stop-color:#fcff9c;stop-opacity:0"/></linearGradient><linearGradient id="_Linear4" x1="0" y1="0" x2="1" y2="0" gradientUnits="userSpaceOnUse" gradientTransform="matrix(74.1752,74.1752,-74.1752,74.1752,219.987,227.573)"><stop offset="0" style="stop-color:#fcff9c;stop-opacity:1"/><stop offset="1" style="stop-color:#fcff9c;stop-opacity:0"/></linearGradient><linearGradient id="_Linear5" x1="0" y1="0" x2="1" y2="0" gradientUnits="userSpaceOnUse" gradientTransform="matrix(-12.7123,-74.1051,-74.1051,12.7123,136.425,138.573)"><stop offset="0" style="stop-color:#fcff9c;stop-opacity:1"/><stop offset="1" style="stop-color:#fcff9c;stop-opacity:0"/></linearGradient></defs></svg>