<svg width="100%" height="100%" viewBox="0 0 385 385" version="1.1" xmlns="http://www.w3.org/2000/svg" xmlns:xlink="http://www.w3.org/1999/xlink" xml:space="preserve" xmlns:serif="http://www.serif.com/" style="fill-rule:evenodd;clip-rule:evenodd;stroke-linejoin:round;stroke-miterlimit:2;"><rect id="gameplay-opposites" x="0.439" y="0.074" width="384" height="384" style="fill:none;"/><path d="M134.977,298.616l-15.834,-31.405l31.669,0l-15.835,31.405Zm39.205,0l-15.834,-31.405l31.668,0l-15.834,31.405Zm39.205,0l-15.834,-31.405l31.668,0l-15.834,31.405Zm39.204,0l-15.834,-31.405l31.669,0l-15.835,31.405Zm-170.885,-14.274l29.416,-19.28l-27.426,-15.834l-1.99,35.114Zm221.467,0l-29.416,-19.28l27.426,-15.834l1.99,35.114Zm-53.348,-24.667c-38.065,0.119 -76.129,0 -114.193,0c-23.276,-0.074 -45.924,-12.935 -57.839,-32.805c-6.24,-10.406 -9.443,-22.587 -9.468,-34.796l-0.085,-0l0,-0.21c0,-9.945 2.159,-19.39 6.034,-27.891l0.048,-0.105l0.017,-0.038l0.028,-0.062l0.028,-0.06l0.035,-0.076l0.109,-0.235l0.127,-0.269l0.023,-0.049l0.025,-0.052l0.045,-0.095l0.034,-0.071l0.03,-0.062c10.861,-22.662 34.02,-38.326 60.809,-38.326l0.029,-0c38.209,-0.121 76.418,-0.12 114.628,0.001c22.978,0.219 45.312,12.911 57.193,32.456c6.367,10.474 9.645,22.793 9.672,35.144l0.09,-0l0,0.21c0,9.947 -2.159,19.393 -6.035,27.895l-0.044,0.097l-0.018,0.039l-0.029,0.065l-0.028,0.06l-0.034,0.074l-0.111,0.237l-0.126,0.269l-0.023,0.049l-0.025,0.052l-0.045,0.095l-0.034,0.071l-0.03,0.062c-10.861,22.661 -34.019,38.326 -60.809,38.326l-0.028,0Zm-172.583,-67.601c0.071,15.536 6.372,30.876 17.36,41.738c10.686,10.563 25.457,16.719 40.652,16.862c19.456,0.069 38.912,0.104 58.367,0.102l-0,-58.702l114.568,-0c-0.016,-10.318 -2.651,-20.639 -7.856,-29.56c-10.164,-17.421 -29.69,-28.839 -50.102,-29.04c-19.456,-0.061 -38.911,-0.06 -58.367,-0.045l-0,58.645l-114.622,-0Zm-34.533,53.271l35.115,-1.99l-15.835,-27.425l-19.28,29.415Zm299.461,0l-35.115,-1.99l15.835,-27.425l19.28,29.415Zm-313.735,-53.271l31.405,-15.834l0,31.668l-31.405,-15.834Zm328.009,-0l-31.405,-15.834l-0,31.668l31.405,-15.834Zm-313.735,-53.271l35.115,1.989l-15.835,27.426l-19.28,-29.415Zm299.461,-0l-35.115,1.989l15.835,27.426l19.28,-29.415Zm-260.464,-38.997l29.416,19.28l-27.426,15.834l-1.99,-35.114Zm221.467,-0l-29.416,19.28l27.426,15.834l1.99,-35.114Zm-152.361,17.131l-31.669,-0l15.834,-31.405l15.835,31.405Zm39.204,-0l-31.668,-0l15.834,-31.405l15.834,31.405Zm39.205,-0l-31.668,-0l15.834,-31.405l15.834,31.405Zm39.205,-0l-31.669,-0l15.834,-31.405l15.835,31.405Z" style="fill:#fcff9c;"/></svg>