<svg width="100%" height="100%" viewBox="0 0 385 385" version="1.1" xmlns="http://www.w3.org/2000/svg" xmlns:xlink="http://www.w3.org/1999/xlink" xml:space="preserve" xmlns:serif="http://www.serif.com/" style="fill-rule:evenodd;clip-rule:evenodd;stroke-linejoin:round;stroke-miterlimit:2;"><rect id="gameplay-powerups" x="0.856" y="0.074" width="384" height="384" style="fill:none;"/><path d="M105.234,255.055l4.177,-13.448l8.131,11.502l14.09,-0.181l-8.433,11.283l4.525,13.334l-13.338,-4.522l-11.274,8.426l0.176,-14.086l-11.505,-8.127l13.451,-4.181Z" style="fill:#fcff9c;fill-rule:nonzero;"/><path d="M236.932,94.408l9.864,-12.466l3.884,15.398l14.893,5.528l-13.445,8.455l-0.659,15.877l-12.192,-10.176l-15.288,4.28l5.902,-14.744l-8.795,-13.211l15.836,1.059Z" style="fill:#fcff9c;fill-rule:nonzero;"/><path d="M73.66,177.732l2.042,-8.884l5.795,7.022l9.073,-0.794l-4.887,7.686l3.563,8.388l-8.82,-2.274l-6.879,5.972l-0.551,-9.09l-7.808,-4.689l8.472,-3.337Z" style="fill:#fcff9c;fill-rule:nonzero;"/><path d="M183.632,254.343l2.042,-8.884l5.795,7.022l9.072,-0.794l-4.887,7.686l3.564,8.388l-8.821,-2.274l-6.879,5.972l-0.55,-9.09l-7.808,-4.689l8.472,-3.337Z" style="fill:#fcff9c;fill-rule:nonzero;"/><path d="M265.867,156.117l-7.381,-19.381l19.871,5.933l16.159,-13.017l0.49,20.732l17.376,11.34l-19.567,6.891l-5.417,20.016l-12.59,-16.489l-20.711,1.054l11.77,-17.079Z" style="fill:#fcff9c;fill-rule:nonzero;"/><path d="M248.398,190.168l6.085,-6.751l1.656,8.935l8.307,3.699l-7.988,4.339l-0.959,9.038l-6.59,-6.26l-8.894,1.889l3.919,-8.206l-4.552,-7.87l9.016,1.187Z" style="fill:#fcff9c;fill-rule:nonzero;"/><path d="M291.875,205.925l16.556,-6.179l-5.196,16.898l10.952,13.82l-17.633,0.283l-9.773,14.693l-5.735,-16.694l-16.985,-4.73l14.111,-10.618l-0.757,-17.625l14.46,10.152Z" style="fill:#fcff9c;fill-rule:nonzero;"/><path d="M89.896,224.619l9.569,-3.568l-3.005,9.762l6.341,7.98l-10.19,0.156l-5.648,8.488l-3.307,-9.644l-9.816,-2.731l8.152,-6.127l-0.433,-10.182l8.337,5.866Z" style="fill:#fcff9c;fill-rule:nonzero;"/><path d="M220.968,141.539l12.346,-10.909l1.138,16.431l14.192,8.372l-15.27,6.17l-3.576,16.075l-10.587,-12.623l-16.394,1.567l8.734,-13.957l-6.559,-15.12l15.976,3.994Z" style="fill:#fcff9c;fill-rule:nonzero;"/><path d="M111.207,118.143l14.478,-12.797l1.346,19.274l16.643,9.827l-17.92,7.233l-4.191,18.863l-12.413,-14.809l-19.244,1.833l10.242,-16.372l-7.686,-17.734l18.745,4.682Z" style="fill:#fcff9c;fill-rule:nonzero;"/><path d="M148.902,283.038l6.093,-14.069l7.455,13.405l15.263,1.445l-10.434,11.241l3.336,14.968l-13.905,-6.467l-13.208,7.804l1.849,-15.221l-11.505,-10.161l15.056,-2.945Z" style="fill:#fcff9c;fill-rule:nonzero;"/><path d="M114.348,186.266l15.361,-9.086l-2.14,17.71l13.38,11.802l-17.501,3.444l-7.087,16.373l-8.674,-15.584l-17.761,-1.679l12.133,-13.07l-3.89,-17.414l16.179,7.504Z" style="fill:#fcff9c;fill-rule:nonzero;"/><path d="M211.269,277.866l10.829,-13.627l4.225,16.879l16.32,6.084l-14.752,9.248l-0.742,17.388l-13.342,-11.171l-16.77,4.665l6.496,-16.141l-9.621,-14.513l17.357,1.188Z" style="fill:#fcff9c;fill-rule:nonzero;"/><path d="M153.791,224.683l13.753,-5.993l-3.613,14.563l9.951,11.232l-14.967,1.064l-7.599,12.933l-5.636,-13.904l-14.654,-3.237l11.479,-9.652l-1.451,-14.941l12.737,7.935Z" style="fill:#fcff9c;fill-rule:nonzero;"/><path d="M189.509,84.22l23.933,-0.155l-14.433,19.091l7.542,22.718l-22.624,-7.834l-19.261,14.203l0.466,-23.934l-19.466,-13.945l22.893,-6.952l7.258,-22.813l13.692,19.621Z" style="fill:#fcff9c;fill-rule:nonzero;"/><path d="M152.913,154.755c5.501,-5.296 15.182,-5.166 20.527,0.437l22.226,23.597l-23.403,23.403c-7.91,-7.451 -15.866,-14.852 -23.729,-22.352c-5.412,-5.295 -5.652,-14.847 -0.305,-20.401c1.551,-1.571 3.113,-3.133 4.684,-4.684Zm2.798,11.86c-1.541,1.561 -1.526,4.291 0.084,5.824l16.252,15.309l9.175,-9.175c-5.101,-5.416 -10.202,-10.831 -15.303,-16.247c-1.529,-1.623 -4.205,-1.653 -5.771,-0.146c-1.489,1.469 -2.958,2.957 -4.437,4.435Z" style="fill:#fcff9c;"/><path d="M279.115,265.871c4.204,4.406 4.123,11.363 -0.184,15.67c-1.289,1.289 -2.626,2.627 -3.916,3.916c-4.306,4.306 -11.263,4.388 -15.67,0.184c-21.459,-20.473 -79.089,-75.456 -79.089,-75.456l23.403,-23.403c0,0 54.983,57.63 75.456,79.089Z" style="fill:#fcff9c;"/></svg>