<svg width="100%" height="100%" viewBox="0 0 385 385" version="1.1" xmlns="http://www.w3.org/2000/svg" xmlns:xlink="http://www.w3.org/1999/xlink" xml:space="preserve" xmlns:serif="http://www.serif.com/" style="fill-rule:evenodd;clip-rule:evenodd;stroke-linejoin:round;stroke-miterlimit:2;"><rect id="gameplay-slingshot" x="0.3" y="0.074" width="384" height="384" style="fill:none;"/><g><path d="M251.536,132.837c-21.863,-21.863 -57.363,-21.863 -79.225,0c-0,0 -65.68,65.68 -65.68,65.68c-21.863,21.863 -21.863,57.363 -0,79.226c21.862,21.863 57.362,21.863 79.225,-0c0,-0 65.68,-65.68 65.68,-65.68c21.863,-21.863 21.863,-57.363 0,-79.226Zm-8.593,8.594c17.12,17.12 17.12,44.918 -0,62.038c-0,0 -65.68,65.68 -65.68,65.68c-17.12,17.121 -44.919,17.121 -62.039,0c-17.12,-17.12 -17.12,-44.918 -0,-62.038c-0,-0 65.68,-65.68 65.68,-65.68c17.12,-17.12 44.919,-17.12 62.039,-0Z" style="fill:#ffffa3;"/><path d="M141.673,253.186c5.276,5.277 12.024,3.704 16.438,-0.71c5.987,-5.987 3.197,-13.141 3.197,-13.141l0.101,-0.101c0,-0 0.355,0.659 1.167,1.471l0.305,0.304c1.471,1.472 3.653,1.827 6.037,-0.558l6.089,-6.088l-4.82,-4.82l-2.334,2.334c-0.711,0.71 -1.472,0.761 -2.233,-0l-10.35,-10.35c-6.596,-6.596 -13.902,-6.495 -20.853,0.456c-6.24,6.241 -7.052,13.445 -7.052,13.445l6.849,2.081c0,-0 0.964,-5.937 4.82,-9.792c2.689,-2.69 5.937,-3.603 9.234,-0.305l0.863,0.863l-1.624,1.623c-4.16,4.161 -13.749,15.373 -5.834,23.288Zm5.987,-7.001c-3.907,-3.907 1.826,-10.452 4.363,-12.989l1.065,-1.065l0.863,0.862c3.247,3.247 4.515,9.488 1.015,12.989c-2.385,2.384 -5.378,2.131 -7.306,0.203Z" style="fill:#ffffa3;fill-rule:nonzero;"/><path d="M180.182,229.188l6.088,-6.089l-1.573,-1.572c-1.014,-1.015 -2.029,-1.827 -2.029,-1.827l0.101,-0.101c0,-0 6.19,2.029 11.822,-3.603c6.849,-6.849 6.596,-17.25 -1.624,-25.469c-8.016,-8.017 -18.062,-9.032 -25.064,-2.03c-5.428,5.429 -3.906,11.619 -3.906,11.619l-0.102,0.101c0,0 -0.812,-1.014 -2.08,-2.283l-11.213,-11.213l-10.401,10.401l4.82,4.82l3.958,-3.957l31.203,31.203Zm-6.495,-19.077c-5.733,-5.733 -5.023,-11.314 -1.674,-14.663c3.805,-3.805 9.64,-3.247 14.562,1.674c5.124,5.125 5.022,11.01 1.471,14.562c-4.313,4.312 -10.35,2.435 -14.359,-1.573Z" style="fill:#ffffa3;fill-rule:nonzero;"/><path d="M196.57,187.026c8.371,8.371 20.193,6.798 27.753,-0.761c4.921,-4.922 6.595,-11.264 6.697,-14.714l-6.85,-2.283c-0.304,2.537 -1.268,7.56 -4.921,11.213c-4.414,4.414 -11.01,5.226 -16.337,-0.102c-4.719,-4.718 -5.074,-10.857 -0.355,-15.576c2.181,-2.182 5.631,-4.008 7.356,-2.283l1.725,1.725l5.581,-5.581l-3.551,-3.552c-4.566,-4.566 -12.481,0.102 -16.794,4.415c-7.966,7.965 -8.016,19.787 -0.304,27.499Z" style="fill:#ffffa3;fill-rule:nonzero;"/><path d="M27.374,315.122c11.556,-11.557 30.321,-11.557 41.878,-0c11.556,11.556 11.556,30.321 -0,41.878c-11.557,11.556 -30.322,11.556 -41.878,-0c-11.557,-11.557 -11.557,-30.322 -0,-41.878Z" style="fill:url(#_Radial1);"/><path d="M306.013,15.054l9.135,-10.114l64.286,64.286l-73.053,65.976l-7.14,-9.424l-9.378,22.959l1.753,-0.201l-13.082,11.815c-0.19,-1.052 -0.405,-2.1 -0.644,-3.142l1.383,0.899l0.837,-20.148l-7.661,4.117c-2.199,-4.384 -4.903,-8.578 -8.112,-12.493l5.469,-7.923l-14.257,-0.993c-4.067,-3.433 -8.444,-6.31 -13.033,-8.633l6.737,-3.682l-14.662,-9.379l-0.33,9.554c-3.35,-1.167 -6.774,-2.063 -10.239,-2.689l16.402,-18.161l6.14,10.87l12.365,-21.498l-8.745,-0.178l15.188,-16.818l8.882,1.751l-2.945,-8.325l8.387,-9.286l1.628,1.54l1.011,-4.462l15.109,-16.73l0.749,6.032l15.655,-12.105l-7.835,-3.415Zm54.341,62.992l-4.044,-19.371l19.085,6.512l-15.041,12.859Zm-31.258,9.128l8.664,-23.237l15.877,19.662l-24.541,3.575Zm-19.726,31.057l-3.443,-19.487l18.874,7.099l-15.431,12.388Zm-229.458,147.177l2.997,-3.318c2.235,5.926 5.33,11.599 9.284,16.829l-15.601,17.144l24.287,5.017l-5.661,-18.442c1.005,1.149 2.054,2.273 3.15,3.368c3.132,3.132 6.496,5.893 10.036,8.282l2.374,13.44l9.034,-7.252c0.819,0.347 1.643,0.676 2.472,0.989l-19.058,17.211l-2.577,-3.401l-3.708,9.077l-8.047,7.267c-0.504,-4.645 -1.803,-9.221 -3.898,-13.505l8.046,-3.573l-14.184,-10.088l-0.468,3.994c-0.392,-0.426 -0.794,-0.845 -1.206,-1.258c-2.673,-2.672 -5.625,-4.897 -8.764,-6.673l4.021,-15.692l-13.663,3.985l9.906,-10.969l-0.123,0.692l18.528,-6.952l-7.177,-6.172Zm197.537,-150.452l14.184,10.088l-16.209,7.2l2.025,-17.288Zm24.432,-28.35l17.133,-9.902l-0.213,20.164l-16.92,-10.262Zm-2.41,24.977l-24.287,-5.017l17.009,-18.691l7.278,23.708Zm34.025,-56.876l13.694,-10.744l2.31,17.586l-16.004,-6.842Zm-17.852,-0.913l14.489,9.644l-15.979,7.697l1.49,-17.341Zm-48.932,58.393l-12.707,-11.894l17.027,-4.966l-4.32,16.86Zm69.01,-69.596l-24.687,2.367l10.743,-22.875l13.944,20.508Zm-52.292,17.183l24.782,0.957l-13.707,21.233l-11.075,-22.19Zm2.251,22.309l-18.528,6.952l3.524,-19.855l15.004,12.903Zm-228.924,208.964l8.295,7.764c-3.932,-1.764 -8.086,-2.875 -12.298,-3.332l4.003,-4.432Zm247.841,-238.22l-15.649,-7.619l14.806,-9.766l0.843,17.385Z" style="fill:url(#_Linear2);"/></g><defs><radialGradient id="_Radial1" cx="0" cy="0" r="1" gradientUnits="userSpaceOnUse" gradientTransform="matrix(20.939,-20.939,20.939,20.939,48.3127,336.061)"><stop offset="0" style="stop-color:#ffffa3;stop-opacity:0.54"/><stop offset="0.92" style="stop-color:#ffffa3;stop-opacity:1"/><stop offset="1" style="stop-color:#ffffa3;stop-opacity:1"/></radialGradient><linearGradient id="_Linear2" x1="0" y1="0" x2="1" y2="0" gradientUnits="userSpaceOnUse" gradientTransform="matrix(204.998,-204.998,204.998,204.998,142.924,241.449)"><stop offset="0" style="stop-color:#ffffa3;stop-opacity:0.7"/><stop offset="1" style="stop-color:#ffffa3;stop-opacity:0"/></linearGradient></defs></svg>