<svg width="100%" height="100%" viewBox="0 0 385 385" version="1.1" xmlns="http://www.w3.org/2000/svg" xmlns:xlink="http://www.w3.org/1999/xlink" xml:space="preserve" xmlns:serif="http://www.serif.com/" style="fill-rule:evenodd;clip-rule:evenodd;stroke-linejoin:round;stroke-miterlimit:2;"><rect id="gameplay-wormholes" x="0.875" y="0.074" width="384" height="384" style="fill:none;"/><g><path d="M221.729,104.3c1.071,-18.335 -0.775,-37.398 -6.449,-56.506c24.698,22.054 39.944,50.103 46.471,82.692c10.094,-15.343 18.028,-32.776 22.668,-52.161c10.363,31.449 9.541,63.363 -1.101,94.85c16.412,-8.24 31.999,-19.371 45.71,-33.84c-6.75,32.418 -23.418,59.645 -48.38,81.594c18.336,1.07 37.399,-0.776 56.508,-6.452c-22.055,24.699 -50.103,39.945 -82.692,46.471c15.343,10.094 32.775,18.028 52.16,22.667c-31.448,10.364 -63.362,9.543 -94.848,-1.1c8.24,16.414 19.37,32.001 33.838,45.713c-32.417,-6.751 -59.645,-23.42 -81.591,-48.38c-1.071,18.334 0.774,37.398 6.449,56.506c-24.699,-22.054 -39.944,-50.103 -46.471,-82.691c-10.093,15.342 -18.027,32.774 -22.667,52.159c-10.363,-31.448 -9.542,-63.363 1.1,-94.848c-16.411,8.239 -31.998,19.369 -45.709,33.837c6.75,-32.416 23.418,-59.644 48.377,-81.591c-18.334,-1.07 -37.398,0.775 -56.507,6.451c22.055,-24.7 50.105,-39.946 82.693,-46.472c-15.342,-10.094 -32.775,-18.028 -52.161,-22.667c31.45,-10.363 63.364,-9.542 94.849,1.099c-8.239,-16.411 -19.369,-31.998 -33.838,-45.709c32.417,6.75 59.644,23.418 81.591,48.378Zm-28.904,87.717l-0.023,0.036l-0.001,0.036l0.019,0.037l0.033,0.021l0.043,0.002l0.03,-0.016l0.024,-0.038l0.002,-0.039l-0.018,-0.035l-0.029,-0.018l-0.048,-0.002l-0.032,0.016Z" style="fill:#fcff9c;fill-opacity:0.2;fill-rule:nonzero;"/><path d="M198.558,129.003c-2.123,-12.405 -6.305,-24.848 -13.05,-36.728c19.903,10.902 34.423,27.271 43.824,48.021c4.365,-11.807 6.964,-24.674 7.063,-38.335c11.785,19.394 16.175,40.83 13.942,63.499c9.684,-8.042 18.368,-17.885 25.284,-29.667c0.51,22.689 -6.406,43.447 -19.675,61.963c12.406,-2.122 24.849,-6.304 36.729,-13.051c-10.903,19.904 -27.271,34.424 -48.022,43.825c11.807,4.366 24.674,6.965 38.335,7.063c-19.394,11.785 -40.829,16.175 -63.498,13.942c8.041,9.683 17.885,18.368 29.667,25.283c-22.689,0.51 -43.448,-6.405 -61.963,-19.674c2.122,12.407 6.304,24.85 13.05,36.731c-19.904,-10.904 -34.424,-27.273 -43.824,-48.022c-4.366,11.806 -6.965,24.673 -7.063,38.334c-11.786,-19.394 -16.176,-40.83 -13.943,-63.498c-9.682,8.041 -18.367,17.884 -25.283,29.665c-0.51,-22.688 6.406,-43.447 19.675,-61.962c-12.406,2.122 -24.849,6.304 -36.729,13.05c10.903,-19.904 27.271,-34.423 48.02,-43.824c-11.806,-4.365 -24.673,-6.965 -38.335,-7.063c19.395,-11.785 40.831,-16.176 63.5,-13.942c-8.041,-9.683 -17.885,-18.368 -29.667,-25.284c22.689,-0.509 43.448,6.406 61.963,19.674Zm-5.704,63.024l-0.022,0.019l-0.009,0.023l0.006,0.028l0.017,0.02l0.028,0.01l0.023,-0.004l0.023,-0.02l0.009,-0.025l-0.005,-0.027l-0.015,-0.018l-0.031,-0.011l-0.024,0.005Z" style="fill:#fcff9c;fill-opacity:0.3;fill-rule:nonzero;"/><path d="M190.769,154.412c-2.324,-7.127 -5.865,-14.096 -10.868,-20.51c12.672,4.694 22.644,13.077 29.978,24.486c1.551,-7.336 1.97,-15.145 0.847,-23.204c8.622,10.404 13.063,22.654 13.708,36.208c5.011,-5.581 9.277,-12.138 12.333,-19.682c2.263,13.326 -0.017,26.161 -6.235,38.227c7.128,-2.33 14.099,-5.877 20.516,-10.886c-4.703,12.678 -13.093,22.658 -24.507,30.003c7.334,1.546 15.141,1.958 23.2,0.828c-10.409,8.632 -22.66,13.084 -36.213,13.74c5.577,5.007 12.128,9.269 19.67,12.319c-13.326,2.274 -26.157,0.004 -38.215,-6.205c2.324,7.127 5.864,14.096 10.867,20.51c-12.672,-4.694 -22.644,-13.077 -29.978,-24.487c-1.551,7.337 -1.97,15.146 -0.847,23.206c-8.622,-10.405 -13.063,-22.655 -13.708,-36.209c-5.011,5.582 -9.277,12.138 -12.333,19.682c-2.263,-13.326 0.017,-26.161 6.234,-38.226c-7.127,2.33 -14.097,5.877 -20.514,10.885c4.703,-12.678 13.093,-22.658 24.506,-30.003c-7.334,-1.545 -15.141,-1.958 -23.199,-0.828c10.408,-8.632 22.66,-13.084 36.212,-13.74c-5.577,-5.007 -12.128,-9.269 -19.67,-12.319c13.327,-2.274 26.157,-0.004 38.216,6.205Zm2.088,37.637l-0.009,0.011l-0.004,0.016l0.006,0.015l0.013,0.012l0.013,0.003l0.018,-0.006l0.01,-0.012l0.003,-0.016l-0.004,-0.013l-0.015,-0.013l-0.014,-0.003l-0.017,0.006Z" style="fill:#fcff9c;fill-rule:nonzero;"/></g></svg>