<svg width="512" height="495" viewBox="0 0 512 495">
   <path d="M509.642,224.147a79.718,79.718,0,0,1-94.7,61.173l-84.786-18.238a29.047,29.047,0,0,1-15.639-47.655L372,154.492a79.724,79.724,0,0,1,135.441,27.991,0.038,0.038,0,0,1,.008.029A79.738,79.738,0,0,1,509.642,224.147Zm-46.28-27.16-0.007-.03a33.329,33.329,0,0,0-56.611-11.7l-37.806,42.7,55.758,12A33.322,33.322,0,0,0,463.362,196.987Zm-182.325-1.723a29.045,29.045,0,0,1-50.152.147c-12.47-21.185-28.21-47.93-43.989-74.743A79.729,79.729,0,0,1,255.367.5a0.043,0.043,0,0,1,.034,0,79.725,79.725,0,0,1,69.18,119.758C308.959,147.165,293.381,174,281.037,195.264ZM255.531,46.9H255.5A33.324,33.324,0,0,0,226.888,97.13l28.927,49.151,28.629-49.323A33.325,33.325,0,0,0,255.531,46.9ZM195.306,260.8a29.05,29.05,0,0,1-13.11,6.729l-84.672,18.74A79.729,79.729,0,0,1,4.4,184.006a0.148,0.148,0,0,1,.009-0.03,79.723,79.723,0,0,1,135.272-28.792l57.873,64.594A29.05,29.05,0,0,1,195.306,260.8Zm-90.183-74.646a33.318,33.318,0,0,0-56.536,12.037l-0.01.03A33.321,33.321,0,0,0,87.5,240.953l55.684-12.322Zm10.636,155.686,79.315-35.083a29.049,29.049,0,0,1,40.659,29.361c-2.365,24.472-5.351,55.357-8.345,86.328A79.723,79.723,0,0,1,101.364,479.41l-0.024-.019A79.726,79.726,0,0,1,115.759,341.835Zm12.746,99.928,0.026,0.019a33.32,33.32,0,0,0,52.674-23.806l5.483-56.772-52.16,23.069A33.322,33.322,0,0,0,128.505,441.763Zm189-135.376L397.03,341a79.726,79.726,0,0,1,15.233,137.466l-0.026.019a79.723,79.723,0,0,1-126.359-56.221c-3.176-30.953-6.344-61.82-8.854-86.277A29.044,29.044,0,0,1,317.509,306.387Zm14.536,111.14a33.32,33.32,0,0,0,52.806,23.5l0.026-.018a33.323,33.323,0,0,0-6.367-57.454l-52.294-22.762Z"/>
</svg>