<svg xmlns="http://www.w3.org/2000/svg" width="512" height="375" viewBox="0 0 512 375">
   <path d="M488.255,340.683c-21.673,24.393-94.406,35.913-116.732,33.622-24.546-2.523-58.105-26.663-108.546-64.856-1.9-1.43-3.634-2.86-5.282-4.264l-65.032-40.972a27.669,27.669,0,0,1-9.033-38.047c0.076-.124.153-0.247,0.23-0.369a28.387,28.387,0,0,1,38.956-8.324l63.79,40.189c28.452,9.944,18.855-39.582,10.938-62.816a28.108,28.108,0,0,1-1.587-3.962l-46.7-158.2a25.184,25.184,0,0,1,17.15-31.2c0.128-.037.255-0.073,0.384-0.108a26.1,26.1,0,0,1,31.976,17.552l41.382,140.1-5.984-45.5a25.164,25.164,0,0,1,20.39-29.156c0.166-.029.333-0.057,0.5-0.083a26.025,26.025,0,0,1,29.888,20.834l9.829,44.612-1.306-24.917a25.2,25.2,0,0,1,21.625-28.309q0.235-.031.471-0.058a25.981,25.981,0,0,1,29,22l6.037,28.779-0.047-4.936a22.822,22.822,0,0,1,20.532-24.9c0.126-.012.253-0.023,0.379-0.033a23.463,23.463,0,0,1,25.522,20.8l9.832,38.124c0.151,1.388,3.571,18.327,3.444,19.674C513.982,244.375,507.681,318.807,488.255,340.683ZM355.04,192.546a53.936,53.936,0,0,0-9.473-22.213c2.373,15.053,5.608,31.589,8.357,46.334A53.876,53.876,0,0,0,355.04,192.546Zm53.081-7.237a53.88,53.88,0,0,0-7.382-23c0.976,15.2,2.669,31.97,4.045,46.908a53.88,53.88,0,0,0,3.339-23.91h0Zm53.415-1.075a53.888,53.888,0,0,0-6.221-23.334c0.213,15.237,1.063,32.068,1.687,47.049a53.857,53.857,0,0,0,4.536-23.714h0ZM226.805,85.374C146.194,109.7,78.367,173.325,51.643,255.444q-3.486,10.7-5.989,21.694l-0.473-.165h0L0.721,261.43q0.777-3.183,1.628-6.35l0,0c0.088-.33.188-0.656,0.277-0.986q0.773-2.857,1.6-5.7,0.306-1.051.622-2.1,0.788-2.64,1.629-5.266c0.181-.563.353-1.129,0.536-1.692q1.1-3.4,2.284-6.776c0.155-.44.318-0.878,0.474-1.318q0.982-2.754,2.012-5.492,0.383-1.014.773-2.023,1.015-2.637,2.081-5.253c0.206-.509.407-1.018,0.617-1.525q1.372-3.314,2.818-6.6c0.21-.476.429-0.949,0.642-1.425q1.166-2.605,2.381-5.193,0.47-1,.948-2,1.228-2.564,2.507-5.105c0.185-.363.354-0.733,0.54-1.1l0.467-.917c0.523-1.026,1.07-2.042,1.607-3.061,0.382-.725.754-1.454,1.142-2.176,0.491-.913,1-1.817,1.5-2.734,0.459-.834.909-1.671,1.38-2.5,0.535-.948,1.088-1.888,1.633-2.832,0.451-.78.893-1.566,1.351-2.343q1.523-2.572,3.093-5.12C76.694,110.012,140.529,61.748,212.078,39.948l0.928-.279h0Q219.906,62.516,226.805,85.374Z"/>
</svg>