<svg width="512" height="512" viewBox="0 0 512 512">
   <path d="M83.12,390.769l8.551-27.526,16.645,23.544,28.843-.371-17.265,23.1,9.265,27.3-27.3-9.257L78.776,444.8l0.362-28.834L55.586,399.328ZM352.712,61.919L372.9,36.4l7.95,31.521,30.488,11.315L383.817,96.547l-1.349,32.5-24.957-20.831-31.3,8.762L338.3,86.8l-18-27.044ZM18.488,232.487l4.18-18.185,11.862,14.375L53.1,227.051l-10,15.733,7.295,17.17L32.337,255.3,18.256,267.524l-1.127-18.607-15.983-9.6ZM243.6,389.312l4.181-18.184L259.646,385.5l18.572-1.626-10,15.734,7.295,17.169-18.056-4.654-14.081,12.224-1.127-18.607-15.983-9.6ZM411.941,188.241l-15.109-39.674,40.677,12.145,33.077-26.646,1,42.44,35.57,23.212-40.054,14.106L456.016,254.8l-25.773-33.754L387.848,223.2Zm-35.758,69.7,12.454-13.819,3.391,18.29,17,7.572-16.352,8.882-1.962,18.5-13.491-12.813-18.206,3.866,8.023-16.8-9.319-16.111Zm89,32.255,33.89-12.647-10.636,34.591,22.419,28.289-36.094.581-20.007,30.076-11.739-34.173-34.769-9.683L437.13,305.5l-1.55-36.08ZM51.724,328.467l19.587-7.3L65.16,341.147l12.98,16.334-20.86.319L45.72,375.176l-6.771-19.742-20.094-5.591L35.543,337.3l-0.886-20.843ZM320.031,158.4l25.274-22.333,2.328,33.636,29.054,17.137-31.259,12.631-7.32,32.906-21.672-25.839-33.56,3.207,17.879-28.57-13.426-30.953ZM95.348,110.507l29.636-26.2,2.757,39.454,34.066,20.117-36.682,14.807L116.546,197.3l-25.41-30.315-39.392,3.753,20.965-33.514-15.733-36.3Zm77.164,337.545,12.473-28.8,15.26,27.44,31.242,2.96-21.358,23.01,6.83,30.64-28.464-13.238-27.037,15.974,3.785-31.157-23.552-20.8Zm-70.734-198.1,31.444-18.6-4.381,36.253,27.39,24.158-35.826,7.05-14.5,33.517-17.758-31.9L51.785,297l24.837-26.754L68.658,234.6Zm198.4,187.51,22.168-27.9,8.648,34.551L364.4,456.576l-30.2,18.93L332.685,511.1l-27.313-22.866-34.328,9.548,13.3-33.04-19.693-29.708ZM182.519,328.6l28.152-12.269-7.4,29.811,20.371,22.994-30.64,2.178-15.554,26.474-11.537-28.462-30-6.627,23.5-19.758-2.969-30.585ZM255.634,41.065l48.993-.318-29.546,39.08,15.439,46.5L244.208,110.3,204.78,139.369l0.954-48.993L165.886,61.829,212.748,47.6,227.606,0.9ZM186.448,209.731a8.557,8.557,0,0,0,.172,11.922l33.269,31.337,18.782-18.781q-15.663-16.629-31.326-33.258a8.468,8.468,0,0,0-11.814-.3C192.484,203.659,189.476,206.7,186.448,209.731Zm-5.727-24.278c11.26-10.842,31.078-10.576,42.019.894l45.5,48.3-47.907,47.906c-16.192-15.251-32.478-30.4-48.574-45.755-11.078-10.839-11.57-30.393-.624-41.762Q175.9,190.216,180.721,185.453ZM439.061,412.91a22.957,22.957,0,0,1-.377,32.078c-2.639,2.639-5.377,5.376-8.016,8.016a22.956,22.956,0,0,1-32.077.377l-161.9-154.462,47.906-47.9Z"/>
</svg>