<svg width="512" height="481" viewBox="0 0 512 481">
   <path d="M507.592,214.225a11.5,11.5,0,0,1-14.1,2.283,44.247,44.247,0,0,0-24.274-5.817c-18.626,1.077-31.758,11.432-42.827,35.014-17.258,36.768-55.285,56.214-92.408,57.511h0a12.251,12.251,0,0,0-7,21.978c11.161,7.692,23.818,13.764,35.7,16.5,27.139,6.247,43.226,15.5,52.873,30.952s12.994,31.359,8.587,49.284a71.676,71.676,0,0,1-6.754,17.274,11.506,11.506,0,0,1-21.873-4.834,44.375,44.375,0,0,0-7.1-23.95c-10.245-15.607-25.771-21.813-51.71-19.617-40.44,3.424-76.278-19.816-95.963-51.346a0,0,0,0,1,0,0,12.235,12.235,0,0,0-22.518,4.919c-1.075,13.521,0,27.529,3.574,39.191,8.165,26.648,8.2,45.219-.343,61.308s-20.636,26.943-38.348,32.085a71.544,71.544,0,0,1-18.322,2.783,11.519,11.519,0,0,1-6.755-21.377,44.32,44.32,0,0,0,17.17-18.133c8.38-16.684,5.988-33.246-8.882-54.632-23.183-33.343-21-76.029-3.555-108.858a0.008,0.008,0,0,1,0,0,12.245,12.245,0,0,0-15.516-17.059c-12.236,5.829-23.818,13.765-32.122,22.693-18.974,20.4-35.022,29.721-53.216,30.357s-33.63-4.417-46.935-17.2A71.639,71.639,0,0,1,3.392,281.036,11.513,11.513,0,0,1,18.51,264.492a44.249,44.249,0,0,0,24.275,5.817c18.625-1.076,31.759-11.432,42.828-35.014,17.258-36.768,55.284-56.214,92.407-57.511h0a12.251,12.251,0,0,0,7-21.979c-11.161-7.692-23.818-13.764-35.695-16.5-27.14-6.247-43.227-15.5-52.874-30.951S83.463,77,87.869,59.072A71.7,71.7,0,0,1,94.623,41.8,11.506,11.506,0,0,1,116.5,46.632a44.355,44.355,0,0,0,7.1,23.95C133.846,86.189,149.372,92.4,175.31,90.2c40.44-3.424,76.279,19.816,95.963,51.347a0,0,0,0,1,0,0,12.235,12.235,0,0,0,22.518-4.919c1.075-13.521,0-27.528-3.574-39.19-8.164-26.649-8.2-45.22.343-61.309S311.2,9.187,328.909,4.045a71.557,71.557,0,0,1,18.323-2.782,11.519,11.519,0,0,1,6.754,21.377,44.31,44.31,0,0,0-17.17,18.134c-8.38,16.683-5.987,33.245,8.882,54.632,23.183,33.343,21,76.028,3.556,108.857l0,0a12.244,12.244,0,0,0,15.515,17.059C377,215.5,388.585,207.56,396.889,198.631c18.974-20.4,35.022-29.721,53.217-30.357s33.628,4.417,46.934,17.2a71.617,71.617,0,0,1,11.568,14.492A11.526,11.526,0,0,1,507.592,214.225Zm-336-11.171a18.3,18.3,0,1,0,7.562,24.758A18.291,18.291,0,0,0,171.593,203.054Zm2.523,111.266a17.845,17.845,0,1,0,24.128-7.384A17.874,17.874,0,0,0,174.116,314.32ZM223.48,120.083a20.42,20.42,0,1,0,8.438,27.623A20.407,20.407,0,0,0,223.48,120.083ZM260.344,185a31.642,31.642,0,1,0,13.074,42.8A31.619,31.619,0,0,0,260.344,185Zm6.451,83.029A23.926,23.926,0,1,0,276.68,300.4,23.909,23.909,0,0,0,266.8,268.033Zm13.239,73a15.6,15.6,0,1,0,21.1-6.457A15.628,15.628,0,0,0,280.034,341.028ZM326.6,168.221a19.253,19.253,0,1,0,7.955,26.043A19.238,19.238,0,0,0,326.6,168.221Zm23.933,71.227a22.92,22.92,0,1,0,9.471,31A22.9,22.9,0,0,0,350.534,239.448Z"/>
</svg>